<?xml version="1.0" encoding="UTF-8"?>
<!-- generated by toolchain/math_to_svg.js — do not edit by hand -->
<svg xmlns="http://www.w3.org/2000/svg" width="19" height="14" viewBox="0 0 19 14" role="img" aria-label="q_0">
<style><![CDATA[
  .m-bg{ fill:#0d1117; }
  .m-fg{ color:#c9d1d9; }
  @media (prefers-color-scheme: light){
    .m-bg{ fill:#ffffff; }
    .m-fg{ color:#1f2328; }
  }
]]></style>
<rect class="m-bg" x="0" y="0" width="19" height="14"/>
<g class="m-fg" fill="currentColor" transform="translate(1 1) scale(0.01926) translate(0 442)">
<g stroke="currentColor" fill="currentColor" stroke-width="0" transform="scale(1,-1)"><g data-mml-node="math"><g data-mml-node="msub"><g data-mml-node="mi"><path data-c="1D45E" d="M33 157Q33 258 109 349T280 441Q340 441 372 389Q373 390 377 395T388 406T404 418Q438 442 450 442Q454 442 457 439T460 434Q460 425 391 149Q320 -135 320 -139Q320 -147 365 -148H390Q396 -156 396 -157T393 -175Q389 -188 383 -194H370Q339 -192 262 -192Q234 -192 211 -192T174 -192T157 -193Q143 -193 143 -185Q143 -182 145 -170Q149 -154 152 -151T172 -148Q220 -148 230 -141Q238 -136 258 -53T279 32Q279 33 272 29Q224 -10 172 -10Q117 -10 75 30T33 157ZM352 326Q329 405 277 405Q242 405 210 374T160 293Q131 214 119 129Q119 126 119 118T118 106Q118 61 136 44T179 26Q233 26 290 98L298 109L352 326Z"></path></g><g data-mml-node="mn" transform="translate(479,-150) scale(0.707)"><path data-c="30" d="M96 585Q152 666 249 666Q297 666 345 640T423 548Q460 465 460 320Q460 165 417 83Q397 41 362 16T301 -15T250 -22Q224 -22 198 -16T137 16T82 83Q39 165 39 320Q39 494 96 585ZM321 597Q291 629 250 629Q208 629 178 597Q153 571 145 525T137 333Q137 175 145 125T181 46Q209 16 250 16Q290 16 318 46Q347 76 354 130T362 333Q362 478 354 524T321 597Z"></path></g></g></g></g>
</g>
</svg>
